<svg width="72" height="72" viewBox="0 0 72 72" fill="none" xmlns="http://www.w3.org/2000/svg">
<path d="M34.6433 70.5H37.742V59.8758H39.5127V51.465H41.7261V45.2675H43.4968V43.0542H45.7102V41.2835H52.3503V39.0701H60.3185V37.2994H70.5V34.2007H60.3185V31.9873H52.3503V30.2166H45.7102V28.0032H43.4968V26.2325H41.7261V20.035H39.5127V11.6242H37.742V1.44269H34.6433V11.6242H31.9873V20.035H30.2166V26.2325H28.4459V28.0032H25.7898V30.2166H20.035V31.9873H11.6242V34.2007H1V37.2994H11.6242V39.0701H20.035V41.2835H25.7898V43.0542H28.4459V45.2675H30.2166V51.465H31.9873V59.8758H34.6433V70.5Z" stroke="black" stroke-width="2"/>
<path d="M11.6242 52.793V46.1529H15.1656V52.793H16.9363V55.0064H18.707V56.7771H24.9045V60.3185H18.707V62.0892H16.9363V63.4172H15.1656V70.5H11.6242V63.4172H9.41083V62.0892H7.19745V60.3185H1V56.7771H7.19745V55.0064H9.41083V52.793H11.6242Z" fill="white" stroke="black"/>
<path d="M57.2198 7.64013V1H60.7612V7.64013H62.5319V9.8535H64.3026V11.6242H70.5V15.1656H64.3026V16.9363H62.5319V18.2643H60.7612V25.3471H57.2198V18.2643H55.0064V16.9363H52.793V15.1656H46.5956V11.6242H52.793V9.8535H55.0064V7.64013H57.2198Z" fill="white" stroke="black"/>
</svg>
