<svg width="57" height="57" viewBox="0 0 57 57" fill="none" xmlns="http://www.w3.org/2000/svg">
<path d="M27.2581 56H29.7419V47.9427H31.1613V43.0382H32.5806V38.1338H35.4194V39.8853H38.6129V41.2866H40.7419V38.8344H39.3226V35.6815H37.5484V33.2293H42.5161V31.4777H47.4839V29.7261H56V27.6242H47.4839V26.2229H42.5161V24.121H37.5484V21.6688H39.3226V18.5159V17.8153H35.4194V19.5669H32.5806V14.3121H31.1613V9.40764H29.7419V1H27.2581V9.40764H25.4839V14.3121H23.7097V19.5669H21.2258V17.8153H18.0323V16.0637H16.2581V14.3121H13.7742V17.1146H15.5484V18.5159H17.6774V21.6688H19.0968V24.121H13.7742V26.2229H9.16129V27.6242H1V29.7261H9.16129V31.4777H13.7742V33.2293H19.0968V35.6815H17.6774V38.8344H15.5484V41.2866H13.7742V43.0382H16.2581V41.2866H18.0323V39.8853H21.2258V38.1338H23.7097V43.0382H25.4839V47.9427H27.2581V56Z" fill="white"/>
<path d="M40.7419 41.2866H38.6129V39.8853H35.4194V38.1338H32.5806V43.0382H31.1613V47.9427H29.7419V56H27.2581V47.9427H25.4839V43.0382H23.7097V38.1338H21.2258V39.8853H18.0323V41.2866H16.2581V43.0382H13.7742V41.2866H15.5484V38.8344H17.6774V35.6815H19.0968V33.2293H13.7742V31.4777H9.16129V29.7261H1V27.6242H9.16129V26.2229H13.7742V24.121H19.0968V21.6688H17.6774V18.5159H15.5484V17.1146H13.7742V14.3121H16.2581V16.0637H18.0323V17.8153H21.2258V19.5669H23.7097V14.3121H25.4839V9.40764H27.2581V1H29.7419V9.40764H31.1613V14.3121H32.5806V19.5669H35.4194V17.8153H39.3226M40.7419 41.2866V43.0382H42.5161V41.2866H40.7419ZM40.7419 41.2866V38.8344H39.3226V35.6815H37.5484V33.2293H42.5161V31.4777H47.4839V29.7261H56V27.6242H47.4839V26.2229H42.5161V24.121H37.5484V21.6688H39.3226V18.5159M39.3226 18.5159H40.7419V17.1146H42.5161V14.3121H40.7419V16.0637H39.3226V17.8153M39.3226 18.5159V17.8153" stroke="black"/>
</svg>
