<svg width="50" height="50" viewBox="0 0 50 50" fill="none" xmlns="http://www.w3.org/2000/svg">
<path d="M39.8364 9.63032H37.3706V11.1714H35.8295V12.7126H32.7473V14.2537H31.5143V15.4866H30.2814V17.0277H28.7403V14.2537H27.1992V9.63032H25.9663V4.39048H24.4252V9.63032H22.5758V14.2537H21.3429V17.0277H19.8018V15.7948H17.0277V14.5619L14.2537 14.5619M39.8364 9.63032V8.39742L41.3776 8.39742M39.8364 9.63032H41.3776V8.39742M39.8364 9.63032V12.7126H38.9118V14.2537H37.3706V17.0277H35.8295V18.2606H34.2884V20.11L32.7473 20.11V21.0347L35.8295 21.0347V22.5758H40.4529V24.1169H46.001V25.6581H40.4529V27.1992H35.8295V28.7403L32.7473 28.7403V29.665L34.2884 29.665V32.7473H35.8295V35.2131H37.3706V36.7542H38.9118V38.6035H37.3706V37.6789H35.8295V36.1377H32.7473V34.5966H30.2814L30.2814 32.7473H28.7403L28.7403 36.1377H27.1992V40.1447H25.9663V46.3092H24.4252V40.1447H22.5758V36.1377H21.3429L21.3429 32.7473H19.8018L19.8018 34.5966H18.2606V36.1377H17.0277V37.6789H14.5619V38.6035H13.0208V40.1447H10.555V41.6858H8.39742M41.3776 8.39742V6.85629H42.9187M41.3776 8.39742H42.9187V6.85629M42.9187 6.85629V5.31516H44.4598M42.9187 6.85629H44.4598V5.31516M44.4598 5.31516V3.77403L46.001 3.77403M44.4598 5.31516H46.001V3.77403M46.001 3.77403V2.2329H47.5421M46.001 3.77403H47.5421V2.2329M47.5421 2.2329V1L49.0832 1V2.2329H47.5421ZM8.39742 41.6858V43.2269H7.16452M8.39742 41.6858H7.16452V43.2269M8.39742 41.6858L8.39742 40.1447H9.63032V37.0624H11.4797V35.5213H12.4044V32.7473H14.2537V31.2061H15.4866V29.9732H17.0277V28.4321H14.2537V27.1992H8.39742V25.6581H4.08226V24.1169H8.39742V22.5758H14.2537V21.0347H17.0277V20.11H15.4866V17.0277H14.2537L14.2537 14.5619M7.16452 43.2269V44.7681H5.62339M7.16452 43.2269H5.62339V44.7681M5.62339 44.7681V46.001H4.08226M5.62339 44.7681H4.08226L4.08226 46.001M4.08226 46.001V47.2339H2.84935M4.08226 46.001H2.84935V47.2339M2.84935 47.2339V49.0832H1V47.2339H2.84935ZM14.2537 14.5619H12.4044V12.7126M14.2537 14.5619V12.7126H12.4044M12.4044 12.7126H10.8632V10.8632H12.4044V12.7126Z" stroke="black"/>
</svg>
